<?xml version="1.0" encoding="UTF-8" ?>
<!DOCTYPE svg PUBLIC "-//W3C//DTD SVG 1.1//EN" "http://www.w3.org/Graphics/SVG/1.1/DTD/svg11.dtd">
<svg width="1067pt" height="1067pt" viewBox="0 0 1067 1067" version="1.1" xmlns="http://www.w3.org/2000/svg">
<g id="#4d7df4ff">
<path fill="#4d7df4" opacity="1.00" d=" M 0.00 0.00 L 1067.00 0.00 L 1067.00 850.64 C 1039.54 829.47 1009.97 811.25 980.00 793.90 C 970.04 788.29 960.54 781.91 950.43 776.57 C 918.43 759.56 884.45 746.61 850.12 735.17 C 818.01 724.66 785.36 715.64 752.11 709.52 C 738.33 707.09 724.43 705.03 710.43 704.70 C 704.76 698.93 699.31 692.90 694.82 686.15 C 691.39 681.33 689.59 675.64 687.65 670.12 C 680.74 649.19 678.69 626.94 679.00 604.99 C 678.75 588.72 680.50 572.52 681.48 556.30 C 682.79 550.93 686.19 546.38 688.27 541.30 C 690.33 537.52 691.20 533.09 693.95 529.73 C 708.07 525.84 719.91 516.33 729.36 505.42 C 741.20 491.39 749.61 474.70 755.23 457.29 C 759.96 442.10 762.97 426.07 761.32 410.13 C 760.47 403.73 758.71 396.77 753.57 392.44 C 749.23 388.90 743.06 389.31 738.17 391.39 C 729.70 394.89 722.80 401.19 716.35 407.54 C 716.43 403.36 716.65 399.18 716.43 395.00 C 717.21 396.20 718.03 397.38 718.86 398.58 C 721.59 398.21 724.25 397.19 726.07 395.03 C 732.25 388.16 735.87 379.47 739.12 370.95 C 746.30 351.06 750.02 330.04 751.39 308.98 C 753.46 273.80 748.46 237.47 732.21 205.88 C 718.63 178.86 696.26 156.58 669.61 142.42 C 649.54 131.56 627.42 124.89 605.00 121.04 C 586.14 117.98 567.06 116.05 547.94 115.99 C 515.58 115.59 482.75 120.23 452.80 132.90 C 427.55 143.46 404.72 160.11 387.66 181.60 C 363.24 212.05 350.66 251.15 350.24 290.00 C 349.88 319.81 356.17 350.34 371.84 375.99 C 370.46 406.65 371.97 437.49 376.69 467.84 C 381.79 500.08 390.93 531.95 406.22 560.91 C 408.49 565.59 411.66 569.78 413.61 574.63 C 416.08 596.12 414.48 618.05 409.42 639.08 C 402.61 667.15 390.10 693.60 374.65 717.91 C 373.05 714.41 372.95 710.52 372.04 706.85 C 354.66 705.34 337.13 706.90 319.93 709.56 C 283.06 715.59 247.61 728.30 213.71 743.74 C 177.83 760.18 143.53 779.91 110.55 801.53 C 100.97 807.91 91.27 814.15 82.14 821.15 C 53.97 840.49 25.46 859.64 0.00 882.54 L 0.00 0.00 Z" />
</g>
<g id="#2c2c2cff">
<path fill="#2c2c2c" opacity="1.00" d=" M 452.80 132.90 C 482.75 120.23 515.58 115.59 547.94 115.99 C 567.06 116.05 586.14 117.98 605.00 121.04 C 627.42 124.89 649.54 131.56 669.61 142.42 C 696.26 156.58 718.63 178.86 732.21 205.88 C 748.46 237.47 753.46 273.80 751.39 308.98 C 750.02 330.04 746.30 351.06 739.12 370.95 C 735.87 379.47 732.25 388.16 726.07 395.03 C 724.25 397.19 721.59 398.21 718.86 398.58 C 718.03 397.38 717.21 396.20 716.43 395.00 C 705.31 377.54 693.36 360.06 687.65 339.92 C 683.56 324.96 680.87 309.67 676.93 294.67 C 637.53 303.55 596.42 307.17 556.39 300.44 C 535.18 296.86 514.42 290.30 495.20 280.61 C 478.72 272.55 463.53 262.12 449.05 250.92 C 443.66 246.75 438.26 242.60 432.71 238.65 C 414.85 252.84 404.79 274.39 398.93 295.96 C 394.25 313.04 391.84 330.63 389.51 348.15 C 388.14 357.66 387.05 367.27 384.37 376.52 C 383.35 380.16 381.60 383.54 379.51 386.67 C 376.69 383.30 374.19 379.69 371.84 375.99 C 356.17 350.34 349.88 319.81 350.24 290.00 C 350.66 251.15 363.24 212.05 387.66 181.60 C 404.72 160.11 427.55 143.46 452.80 132.90 Z" />
</g>
<g id="#ffeacfff">
<path fill="#ffeacf" opacity="1.00" d=" M 398.93 295.96 C 404.79 274.39 414.85 252.84 432.71 238.65 C 438.26 242.60 443.66 246.75 449.05 250.92 C 463.53 262.12 478.72 272.55 495.20 280.61 C 514.42 290.30 535.18 296.86 556.39 300.44 C 596.42 307.17 637.53 303.55 676.93 294.67 C 680.87 309.67 683.56 324.96 687.65 339.92 C 693.36 360.06 705.31 377.54 716.43 395.00 C 716.65 399.18 716.43 403.36 716.35 407.54 C 716.17 443.90 710.51 480.35 699.04 514.89 C 697.26 519.80 695.33 524.67 693.95 529.73 C 691.20 533.09 690.33 537.52 688.27 541.30 C 686.19 546.38 682.79 550.93 681.48 556.30 C 678.12 560.22 675.86 564.89 673.08 569.20 C 656.74 594.80 634.88 617.32 608.21 632.16 C 587.80 643.73 564.52 650.23 541.05 650.69 C 521.07 650.92 501.01 646.68 482.97 638.07 C 457.28 626.17 435.77 606.39 419.80 583.18 C 417.90 580.21 415.78 577.40 413.61 574.63 C 411.66 569.78 408.49 565.59 406.22 560.91 C 390.93 531.95 381.79 500.08 376.69 467.84 C 371.97 437.49 370.46 406.65 371.84 375.99 C 374.19 379.69 376.69 383.30 379.51 386.67 C 381.60 383.54 383.35 380.16 384.37 376.52 C 387.05 367.27 388.14 357.66 389.51 348.15 C 391.84 330.63 394.25 313.04 398.93 295.96 Z" />
</g>
<g id="#f3f3f3ff">
<path fill="#f3f3f3" opacity="1.00" d=" M 738.17 391.39 C 743.06 389.31 749.23 388.90 753.57 392.44 C 758.71 396.77 760.47 403.73 761.32 410.13 C 762.97 426.07 759.96 442.10 755.23 457.29 C 749.61 474.70 741.20 491.39 729.36 505.42 C 719.91 516.33 708.07 525.84 693.95 529.73 C 695.33 524.67 697.26 519.80 699.04 514.89 C 710.51 480.35 716.17 443.90 716.35 407.54 C 722.80 401.19 729.70 394.89 738.17 391.39 Z" />
<path fill="#f3f3f3" opacity="1.00" d=" M 695.39 723.37 C 699.46 717.30 702.75 710.74 707.13 704.89 C 707.96 704.84 709.60 704.75 710.43 704.70 C 724.43 705.03 738.33 707.09 752.11 709.52 C 785.36 715.64 818.01 724.66 850.12 735.17 C 884.45 746.61 918.43 759.56 950.43 776.57 C 960.54 781.91 970.04 788.29 980.00 793.90 C 1009.97 811.25 1039.54 829.47 1067.00 850.64 L 1067.00 1067.00 L 0.00 1067.00 L 0.00 882.54 C 25.46 859.64 53.97 840.49 82.14 821.15 C 91.27 814.15 100.97 807.91 110.55 801.53 C 143.53 779.91 177.83 760.18 213.71 743.74 C 247.61 728.30 283.06 715.59 319.93 709.56 C 337.13 706.90 354.66 705.34 372.04 706.85 C 372.95 710.52 373.05 714.41 374.65 717.91 C 380.42 732.19 390.00 744.53 400.11 755.98 C 413.22 770.64 428.30 783.51 444.62 794.46 C 474.45 814.39 509.81 827.72 546.07 826.59 C 576.65 825.76 606.25 813.98 630.56 795.72 C 656.79 776.29 677.77 750.65 695.39 723.37 Z" />
</g>
<g id="#f0cfadff">
<path fill="#f0cfad" opacity="1.00" d=" M 673.08 569.20 C 675.86 564.89 678.12 560.22 681.48 556.30 C 680.50 572.52 678.75 588.72 679.00 604.99 C 678.69 626.94 680.74 649.19 687.65 670.12 C 689.59 675.64 691.39 681.33 694.82 686.15 C 699.31 692.90 704.76 698.93 710.43 704.70 C 709.60 704.75 707.96 704.84 707.13 704.89 C 702.75 710.74 699.46 717.30 695.39 723.37 C 677.77 750.65 656.79 776.29 630.56 795.72 C 606.25 813.98 576.65 825.76 546.07 826.59 C 509.81 827.72 474.45 814.39 444.62 794.46 C 428.30 783.51 413.22 770.64 400.11 755.98 C 390.00 744.53 380.42 732.19 374.65 717.91 C 390.10 693.60 402.61 667.15 409.42 639.08 C 414.48 618.05 416.08 596.12 413.61 574.63 C 415.78 577.40 417.90 580.21 419.80 583.18 C 435.77 606.39 457.28 626.17 482.97 638.07 C 501.01 646.68 521.07 650.92 541.05 650.69 C 564.52 650.23 587.80 643.73 608.21 632.16 C 634.88 617.32 656.74 594.80 673.08 569.20 Z" />
</g>
</svg>
