<?xml version="1.0" standalone="no"?><!DOCTYPE svg PUBLIC "-//W3C//DTD SVG 1.1//EN" "http://www.w3.org/Graphics/SVG/1.1/DTD/svg11.dtd"><svg height="1024" node-id="1" sillyvg="true" template-height="1024" template-width="1024" version="1.1" viewBox="0 0 1024 1024" width="1024" xmlns="http://www.w3.org/2000/svg" xmlns:xlink="http://www.w3.org/1999/xlink"><defs node-id="43"><linearGradient gradientUnits="objectBoundingBox" id="linear-gradient" node-id="5" spreadMethod="pad" x1="0.5" x2="0.506" y1="0" y2="0.766"><stop offset="0" stop-color="#f8f8f8" stop-opacity="0.71"></stop><stop offset="1" stop-color="#e2e7f2" stop-opacity="0"></stop></linearGradient><linearGradient gradientUnits="objectBoundingBox" id="linear-gradient-2" node-id="8" spreadMethod="pad" x1="0.5" x2="0.5" y1="0" y2="0.522"><stop offset="0" stop-color="#f8f8f8"></stop><stop offset="1" stop-color="#e2e7f2" stop-opacity="0"></stop></linearGradient><linearGradient gradientUnits="objectBoundingBox" id="linear-gradient-3" node-id="11" spreadMethod="pad" x1="0.765" x2="0.338" y1="-0.019" y2="1.006"><stop offset="0" stop-color="#f8f8f8"></stop><stop offset="1" stop-color="#e2e7f2" stop-opacity="0"></stop></linearGradient><linearGradient gradientUnits="objectBoundingBox" id="linear-gradient-4" node-id="12" spreadMethod="pad" x1="0.7653618" x2="0.65030736" y1="-0.019008985" y2="0.8153854"><stop offset="0" stop-color="#f8f8f8"></stop><stop offset="1" stop-color="#e2e7f2" stop-opacity="0"></stop></linearGradient><linearGradient gradientUnits="objectBoundingBox" id="linear-gradient-5" node-id="13" spreadMethod="pad" x1="0.694" x2="-0.03" y1="0.463" y2="0.605"><stop offset="0" stop-color="#eaeef2"></stop><stop offset="1" stop-color="#e1e6ed"></stop></linearGradient><linearGradient gradientUnits="objectBoundingBox" id="linear-gradient-6" node-id="16" spreadMethod="pad" x1="1" x2="-0.099" y1="0.471" y2="0.454"><stop offset="0" stop-color="#eaeef2"></stop><stop offset="1" stop-color="#e1e6ed"></stop></linearGradient><linearGradient gradientUnits="objectBoundingBox" id="linear-gradient-7" node-id="17" spreadMethod="pad" x1="0.731" x2="0.731" y1="0.953" y2="0.217"><stop offset="0" stop-color="#f8f8f8"></stop><stop offset="1" stop-color="#e2e7f2"></stop></linearGradient><linearGradient gradientUnits="objectBoundingBox" id="linear-gradient-8" node-id="20" spreadMethod="pad" x1="0.305" x2="0.325" y1="0.937" y2="0.144"><stop offset="0" stop-color="#f8f8f8"></stop><stop offset="1" stop-color="#e2e7f2"></stop></linearGradient><linearGradient gradientUnits="objectBoundingBox" id="linearGradient1" node-id="93" spreadMethod="pad" x1="0.5" x2="0.5" y1="0" y2="1"><stop offset="0" stop-color="#f8f8f8"></stop><stop offset="1" stop-color="#e2e7f2"></stop></linearGradient><linearGradient gradientUnits="objectBoundingBox" id="linear-gradient-9" node-id="21" spreadMethod="pad" x1="0.49999923" x2="0.49999923" y1="0" y2="0.99999845"><stop offset="0" stop-color="#f8f8f8"></stop><stop offset="1" stop-color="#e2e7f2"></stop></linearGradient><linearGradient gradientUnits="objectBoundingBox" id="linearGradient2" node-id="106" spreadMethod="pad" x1="0.5" x2="0.5" y1="0" y2="1"><stop offset="0" stop-color="#f8f8f8"></stop><stop offset="1" stop-color="#e2e7f2" stop-opacity="0"></stop></linearGradient><linearGradient gradientUnits="objectBoundingBox" id="linear-gradient-11" node-id="22" spreadMethod="pad" x1="0.5" x2="0.5" y1="0" y2="1"><stop offset="0" stop-color="#f8f8f8"></stop><stop offset="1" stop-color="#e2e7f2" stop-opacity="0"></stop></linearGradient></defs><g node-id="118"><path d="M 0.00 0.00 L 1024.00 0.00 L 1024.00 1024.00 L 0.00 1024.00 Z" fill="#ffffff" fill-opacity="0" fill-rule="nonzero" group-id="1" id="矩形_343" node-id="24" stroke="none" target-height="1024" target-width="1024" target-x="0" target-y="0"></path></g><g node-id="119"><g node-id="120"><path d="M 92.80 779.10 L 85.70 743.70 L 81.80 720.80 L 78.40 695.40 L 77.00 682.30 L 76.00 669.10 L 75.30 656.10 L 75.20 643.80 L 75.90 628.20 L 76.70 621.20 L 77.90 614.30 L 79.40 608.30 L 81.20 603.10 L 83.00 599.20 L 84.90 596.00 L 87.00 593.30 L 89.30 591.10 L 92.60 588.70 L 98.90 585.50 L 101.90 584.60 L 106.10 584.00 L 110.10 584.00 L 114.10 584.60 L 118.00 585.70 L 121.80 587.30 L 125.50 589.30 L 130.80 592.90 L 135.80 597.00 L 140.40 601.50 L 148.20 610.60 L 151.10 614.60 L 157.00 623.50 L 152.90 608.30 L 149.10 591.70 L 145.20 571.40 L 141.90 549.00 L 140.80 537.50 L 140.00 518.60 L 140.70 504.60 L 141.60 497.80 L 142.80 491.60 L 144.40 485.90 L 146.00 481.70 L 147.80 478.00 L 149.80 474.70 L 152.10 471.80 L 154.70 469.10 L 157.60 467.00 L 160.90 465.20 L 164.50 463.90 L 168.30 463.10 L 172.00 462.90 L 175.50 463.30 L 179.10 464.20 L 182.40 465.50 L 185.80 467.30 L 189.20 469.50 L 192.60 472.20 L 196.70 476.20 L 200.80 480.90 L 208.60 491.90 L 215.90 504.40 L 220.90 514.40 L 229.80 535.30 L 233.70 545.60 L 240.20 565.00 L 245.00 581.20 L 248.90 596.30 L 247.70 581.40 L 247.40 565.90 L 247.70 557.20 L 249.20 541.60 L 251.70 529.40 L 253.50 523.40 L 255.70 517.90 L 258.20 512.60 L 260.40 508.90 L 262.90 505.50 L 265.60 502.40 L 268.60 499.70 L 271.80 497.30 L 275.40 495.30 L 279.40 493.70 L 283.80 492.60 L 287.30 492.30 L 290.90 492.60 L 294.50 493.60 L 298.20 495.30 L 301.60 497.30 L 308.80 503.20 L 312.60 507.20 L 317.10 512.60 L 321.80 518.90 L 326.60 526.10 L 335.40 541.30 L 346.00 562.60 L 357.50 589.40 L 367.50 615.20 L 378.40 647.20 L 384.30 666.10 Z" fill="url(#linear-gradient)" fill-rule="nonzero" group-id="2,3" id="路径_63" node-id="26" stroke="none" target-height="316.19998" target-width="309.09998" target-x="75.2" target-y="462.9"></path></g><g node-id="121"><path d="M 998.20 809.00 L 998.00 813.30 L 997.20 817.70 L 995.90 822.00 L 994.10 826.40 L 991.80 830.90 L 988.80 835.50 L 984.90 840.30 L 980.30 845.20 L 974.90 850.30 L 968.50 855.40 L 961.10 860.70 L 945.90 869.80 L 937.00 874.50 L 916.20 883.90 L 903.00 889.10 L 888.50 894.30 L 872.70 899.40 L 855.30 904.50 L 836.90 909.30 L 817.40 913.90 L 796.60 918.30 L 775.90 922.20 L 754.20 925.90 L 731.50 929.30 L 685.40 935.00 L 637.00 939.40 L 586.90 942.30 L 536.00 943.80 L 510.10 944.00 L 484.20 943.80 L 433.30 942.30 L 383.30 939.40 L 334.90 935.00 L 288.70 929.30 L 266.00 925.90 L 244.30 922.20 L 223.60 918.30 L 202.90 913.90 L 183.40 909.30 L 165.00 904.50 L 147.60 899.40 L 131.70 894.30 L 117.20 889.10 L 104.00 883.90 L 83.30 874.50 L 74.40 869.80 L 59.20 860.70 L 51.80 855.40 L 45.40 850.30 L 39.90 845.20 L 35.30 840.30 L 31.50 835.50 L 28.50 830.90 L 26.10 826.40 L 24.30 822.00 L 23.00 817.70 L 22.30 813.30 L 22.00 809.00 L 22.30 804.70 L 23.00 800.30 L 24.30 796.00 L 26.10 791.60 L 28.50 787.10 L 31.50 782.50 L 35.30 777.70 L 39.90 772.80 L 45.40 767.70 L 51.80 762.60 L 59.20 757.30 L 74.40 748.20 L 83.30 743.50 L 104.00 734.10 L 117.20 728.90 L 131.70 723.70 L 147.60 718.60 L 165.00 713.50 L 183.40 708.70 L 202.90 704.10 L 223.60 699.70 L 244.30 695.80 L 266.00 692.10 L 288.70 688.70 L 334.90 683.00 L 383.30 678.60 L 433.30 675.70 L 484.20 674.20 L 510.10 674.00 L 536.00 674.20 L 586.90 675.70 L 637.00 678.60 L 685.40 683.00 L 731.50 688.70 L 754.20 692.10 L 775.90 695.80 L 796.60 699.70 L 817.40 704.10 L 836.90 708.70 L 855.30 713.50 L 872.70 718.60 L 888.50 723.70 L 903.00 728.90 L 916.20 734.10 L 937.00 743.50 L 945.90 748.20 L 961.10 757.30 L 968.50 762.60 L 974.90 767.70 L 980.30 772.80 L 984.90 777.70 L 988.80 782.50 L 991.80 787.10 L 994.10 791.60 L 995.90 796.00 L 997.20 800.30 L 998.00 804.70 L 998.20 809.00 Z" fill="url(#linear-gradient-2)" fill-rule="nonzero" group-id="2,4" id="椭圆_16" node-id="27" stroke="none" target-height="270" target-width="976.2" target-x="22" target-y="674"></path></g><g node-id="122"><path d="M 823.20 676.90 L 828.20 674.00 L 832.10 671.20 L 835.00 668.50 L 839.70 662.80 L 841.10 660.20 L 842.70 656.10 L 845.50 643.30 L 847.30 639.80 L 848.50 638.50 L 850.40 637.20 L 852.80 636.10 L 863.70 632.30 L 868.40 630.30 L 872.40 628.00 L 874.70 626.30 L 878.50 622.20 L 880.00 619.90 L 881.20 617.10 L 882.00 613.80 L 883.40 619.20 L 889.90 637.90 L 890.80 642.50 L 891.00 645.70 L 890.40 652.60 L 889.50 656.10 L 888.00 660.10 L 884.00 668.30 L 881.60 675.70 L 880.60 681.30 L 880.00 686.90 L 878.80 703.20 L 877.20 711.70 L 874.60 718.00 L 872.80 720.90 L 870.40 723.80 L 867.40 726.60 L 864.10 729.10 L 860.50 731.10 L 856.70 732.70 L 852.80 734.00 L 844.80 735.60 L 838.80 736.20 L 827.50 736.10 L 822.90 735.60 L 813.10 734.00 L 809.60 725.60 L 807.30 716.70 L 806.50 711.70 L 806.20 706.30 L 806.80 699.10 L 807.60 695.50 L 808.80 692.00 L 810.60 688.60 L 812.80 685.30 L 815.50 682.30 L 819.00 679.50 L 823.20 676.90 Z" fill="url(#linear-gradient-3)" fill-rule="nonzero" group-id="2,5" id="路径_61" node-id="28" stroke="none" target-height="122.400024" target-width="84.79999" target-x="806.2" target-y="613.8"></path></g><g node-id="123"><path d="M 897.20 695.20 L 904.40 694.30 L 907.00 693.60 L 911.60 691.40 L 915.40 688.20 L 921.50 680.70 L 924.30 679.10 L 927.70 679.00 L 937.80 680.00 L 943.50 679.60 L 945.90 678.90 L 948.10 677.80 L 950.30 676.20 L 952.30 674.00 L 951.40 678.60 L 949.90 691.10 L 948.30 696.30 L 946.90 698.90 L 945.20 701.20 L 942.70 703.70 L 936.80 708.50 L 932.50 713.20 L 929.90 717.00 L 923.10 728.60 L 919.60 733.10 L 915.30 736.60 L 912.60 738.00 L 909.40 739.00 L 906.10 739.60 L 902.70 739.70 L 899.40 739.40 L 894.40 738.30 L 889.70 736.60 L 881.60 732.60 L 873.80 727.30 L 874.00 722.50 L 875.30 715.50 L 876.50 711.50 L 878.10 707.60 L 880.40 703.80 L 882.30 701.60 L 884.50 699.60 L 887.10 697.80 L 889.90 696.50 L 893.20 695.60 L 897.20 695.20 Z" fill="url(#linear-gradient-4)" fill-rule="nonzero" group-id="2,6" id="路径_62" node-id="29" stroke="none" target-height="65.70001" target-width="78.5" target-x="873.8" target-y="674"></path></g><g node-id="124"><g node-id="130"><path d="M 519.70 367.30 L 519.70 496.30 L 739.40 490.40 L 739.40 393.50 Z" fill="#dbdfe6" fill-rule="nonzero" group-id="2,7,13" id="路径_107" node-id="31" stroke="none" target-height="129" target-width="219.70001" target-x="519.7" target-y="367.3"></path></g><g node-id="131"><path d="M 519.70 367.30 L 519.70 496.30 L 343.30 490.40 L 343.30 405.40 Z" fill="#d0d7e0" fill-rule="nonzero" group-id="2,7,14" id="路径_108" node-id="32" stroke="none" target-height="129" target-width="176.40002" target-x="343.3" target-y="367.3"></path></g><g node-id="132"><path d="M 545.10 432.90 L 545.10 713.50 L 739.40 675.40 L 739.40 394.40 Z" fill="url(#linear-gradient-5)" fill-rule="nonzero" group-id="2,7,15" id="路径_103" node-id="33" stroke="none" target-height="319.1" target-width="194.30005" target-x="545.1" target-y="394.4"></path></g><g node-id="133"><path d="M 545.10 713.50 L 343.30 678.30 L 343.30 404.60 L 545.10 432.30 Z" fill="url(#linear-gradient-6)" fill-rule="nonzero" group-id="2,7,16" id="路径_104" node-id="34" stroke="none" target-height="308.9" target-width="201.79999" target-x="343.3" target-y="404.6"></path></g><g node-id="134"><path d="M 343.30 404.60 L 286.50 459.00 L 484.70 494.10 L 546.00 432.30 Z" fill="url(#linear-gradient-7)" fill-rule="nonzero" group-id="2,7,17" id="路径_105" node-id="35" stroke="none" target-height="89.5" target-width="259.5" target-x="286.5" target-y="404.6"></path></g><path d="M 603.00 490.40 L 797.70 448.90 L 739.90 394.50 L 544.20 432.00 Z" fill="url(#linear-gradient-8)" fill-rule="nonzero" group-id="2,7,18" id="路径_106" node-id="36" stroke="none" target-height="95.899994" target-width="253.5" target-x="544.2" target-y="394.5"></path></g><g node-id="125"><path d="M 129.10 707.30 L 138.30 709.80 L 142.70 710.60 L 153.30 711.70 L 159.00 711.50 L 166.70 710.40 L 170.40 709.40 L 174.00 707.90 L 177.40 706.00 L 180.70 703.70 L 183.60 700.90 L 186.20 697.50 L 188.60 693.40 L 191.10 686.50 L 192.70 677.50 L 194.70 670.80 L 196.70 665.40 L 198.80 661.30 L 201.20 657.40 L 203.60 654.40 L 205.80 652.20 L 210.50 649.00 L 215.50 647.50 L 219.50 647.40 L 215.00 647.30 L 209.50 648.40 L 204.30 650.90 L 201.70 652.70 L 199.10 655.10 L 196.40 658.40 L 194.10 661.90 L 191.90 666.30 L 189.70 672.00 L 184.10 670.90 L 174.40 670.20 L 170.30 670.40 L 164.70 671.20 L 159.70 672.40 L 155.40 674.00 L 151.20 676.20 L 147.60 678.50 L 141.50 684.00 L 136.90 689.80 L 134.10 694.40 L 132.20 698.30 L 130.60 702.10 L 129.10 707.30 Z" fill="url(#linearGradient1)" fill-rule="nonzero" group-id="2,8" id="路径_109" node-id="37" stroke="none" target-height="64.400024" target-width="90.399994" target-x="129.1" target-y="647.3"></path></g><g node-id="126"><path d="M 727.70 786.80 L 736.40 788.30 L 740.50 788.60 L 745.10 788.50 L 749.70 788.00 L 754.50 787.00 L 757.50 785.90 L 760.40 784.40 L 763.10 782.60 L 765.50 780.40 L 767.60 777.70 L 769.50 774.30 L 770.50 771.70 L 771.30 768.70 L 772.00 761.10 L 773.00 756.20 L 774.20 752.20 L 776.90 746.00 L 779.90 742.00 L 782.40 739.90 L 784.60 738.70 L 786.70 737.90 L 789.60 737.60 L 786.30 737.80 L 784.00 738.40 L 781.50 739.40 L 777.00 742.60 L 773.50 747.00 L 772.00 749.70 L 769.50 757.30 L 760.40 756.90 L 753.30 757.80 L 748.90 759.10 L 745.10 760.80 L 741.90 762.80 L 736.50 767.70 L 734.40 770.20 L 731.90 774.40 L 728.90 781.70 L 727.70 786.80 Z" fill="url(#linear-gradient-9)" fill-rule="nonzero" group-id="2,9" id="路径_110" node-id="38" stroke="none" target-height="51" target-width="61.899963" target-x="727.7" target-y="737.6"></path></g><g node-id="127"><path d="M 585.90 280.10 L 578.10 287.80 L 572.40 292.60 L 560.40 301.20 L 555.20 304.40 L 544.10 309.90 L 537.70 312.30 L 531.10 314.00 L 528.80 318.70 L 526.20 322.40 L 522.80 326.30 L 518.30 330.20 L 512.80 334.30 L 507.00 338.00 L 493.70 344.70 L 486.30 347.70 L 478.70 350.40 L 477.70 350.50 L 476.00 349.60 L 475.50 348.80 L 475.40 347.80 L 476.30 346.10 L 491.70 340.10 L 498.80 336.70 L 505.40 333.10 L 510.90 329.60 L 515.50 326.10 L 518.80 323.20 L 521.40 320.40 L 525.20 315.00 L 518.00 315.00 L 514.20 314.30 L 511.20 313.20 L 509.40 312.20 L 506.60 309.60 L 505.50 307.70 L 504.80 305.70 L 504.50 301.30 L 505.70 296.60 L 508.30 292.40 L 510.10 290.60 L 512.10 289.10 L 514.40 288.10 L 516.80 287.50 L 519.10 287.50 L 521.30 287.90 L 523.30 288.70 L 525.60 290.20 L 527.60 292.00 L 529.40 294.10 L 531.10 297.80 L 532.10 301.30 L 532.50 304.90 L 532.40 308.60 L 542.20 305.30 L 547.40 302.90 L 552.90 299.90 L 563.90 292.80 L 574.80 284.10 L 580.00 279.10 L 584.20 274.40 L 587.60 270.00 L 592.90 261.10 L 596.00 253.10 L 597.60 246.50 L 598.10 241.70 L 598.10 237.90 L 597.80 234.40 L 596.80 229.10 L 597.60 227.40 L 598.50 226.90 L 599.40 226.70 L 601.10 227.60 L 601.60 228.40 L 602.70 233.60 L 603.10 241.80 L 602.50 247.30 L 601.50 252.20 L 600.00 257.00 L 598.20 261.70 L 595.90 266.20 L 592.90 271.10 L 589.60 275.70 L 585.90 280.10 Z M 512.40 295.30 L 510.30 298.60 L 509.60 300.90 L 509.40 303.00 L 509.80 304.90 L 510.60 306.60 L 511.90 307.80 L 513.70 308.80 L 515.80 309.50 L 518.50 310.00 L 522.90 310.10 L 527.20 309.70 L 527.60 306.40 L 527.40 303.10 L 526.60 300.00 L 525.20 296.90 L 523.80 295.20 L 520.50 292.90 L 517.40 292.40 L 515.50 293.00 L 513.90 293.90 L 512.40 295.30 Z" fill="#e1e6ed" fill-rule="nonzero" group-id="2,10" id="路径_77" node-id="39" stroke="none" target-height="123.8" target-width="127.69998" target-x="475.4" target-y="226.7"></path></g><g node-id="128"><path d="M 734.00 236.60 L 725.90 235.70 L 722.20 234.70 L 715.10 231.60 L 708.90 227.30 L 703.50 221.90 L 701.30 218.80 L 697.70 212.10 L 696.30 208.40 L 694.80 200.80 L 694.60 196.70 L 694.80 192.50 L 695.40 188.60 L 697.70 181.20 L 701.30 174.50 L 706.10 168.60 L 711.90 163.70 L 718.60 160.00 L 725.90 157.60 L 734.00 156.70 L 739.00 157.00 L 743.80 157.90 L 748.60 159.50 L 748.70 152.40 L 749.40 148.30 L 750.50 144.40 L 752.10 140.60 L 754.20 137.00 L 756.60 133.70 L 759.40 130.70 L 762.50 128.00 L 766.10 125.60 L 769.90 123.70 L 773.70 122.30 L 777.80 121.40 L 781.80 120.90 L 785.90 120.90 L 790.00 121.40 L 794.00 122.30 L 797.90 123.70 L 801.70 125.60 L 805.20 128.00 L 808.40 130.70 L 811.20 133.70 L 813.60 137.00 L 815.60 140.60 L 817.20 144.40 L 818.40 148.30 L 819.10 152.40 L 819.30 156.70 L 819.00 161.30 L 818.10 165.80 L 816.60 170.20 L 822.40 167.40 L 828.50 165.70 L 831.60 165.20 L 834.90 165.10 L 839.70 165.50 L 844.30 166.40 L 848.70 168.00 L 852.80 170.10 L 856.50 172.70 L 859.90 175.70 L 862.90 179.10 L 865.40 182.90 L 867.50 187.00 L 869.00 191.40 L 869.90 196.00 L 870.30 200.90 L 869.90 205.70 L 869.00 210.30 L 867.50 214.70 L 865.40 218.80 L 862.90 222.60 L 859.90 226.00 L 856.50 229.10 L 852.80 231.60 L 848.70 233.70 L 844.30 235.30 L 839.70 236.30 L 834.90 236.70 Z" fill="url(#linearGradient2)" fill-rule="nonzero" group-id="2,11" id="联合_69" node-id="40" stroke="none" target-height="115.799995" target-width="175.70001" target-x="694.6" target-y="120.9"></path></g><path d="M 180.50 276.10 L 176.90 275.90 L 173.40 275.20 L 170.10 274.00 L 167.00 272.40 L 164.20 270.50 L 161.60 268.20 L 159.30 265.50 L 157.40 262.70 L 155.90 259.50 L 154.70 256.10 L 154.00 252.60 L 153.80 248.90 L 154.00 245.10 L 154.70 241.60 L 155.90 238.20 L 157.40 235.10 L 159.30 232.20 L 161.60 229.60 L 164.20 227.20 L 167.00 225.30 L 170.10 223.70 L 173.40 222.50 L 176.90 221.80 L 180.50 221.60 L 183.90 221.80 L 187.20 222.40 L 190.50 223.50 L 190.50 218.70 L 191.70 213.20 L 192.80 210.60 L 195.80 205.90 L 199.80 202.10 L 202.20 200.40 L 207.40 198.20 L 212.90 197.20 L 218.50 197.50 L 221.20 198.20 L 226.40 200.40 L 231.00 203.90 L 234.50 208.20 L 236.90 213.20 L 238.10 218.70 L 238.10 224.70 L 236.50 230.80 L 239.40 229.30 L 242.40 228.20 L 245.60 227.50 L 248.80 227.30 L 252.10 227.60 L 255.20 228.30 L 258.20 229.40 L 263.50 232.60 L 267.80 237.00 L 270.90 242.30 L 271.90 245.30 L 272.50 248.40 L 272.80 251.70 L 272.50 255.00 L 271.90 258.20 L 270.90 261.10 L 269.50 263.90 L 265.80 268.80 L 261.00 272.60 L 258.20 274.10 L 255.20 275.20 L 252.10 275.90 L 248.80 276.10 Z" fill="url(#linear-gradient-11)" fill-rule="nonzero" group-id="2,12" id="联合_70" node-id="41" stroke="none" target-height="78.90001" target-width="118.999985" target-x="153.8" target-y="197.2"></path></g></svg>